<?xml version="1.0" encoding="iso-8859-1"?>
<!-- Generator: Adobe Illustrator 16.0.0, SVG Export Plug-In . SVG Version: 6.00 Build 0)  -->
<!DOCTYPE svg PUBLIC "-//W3C//DTD SVG 1.1//EN" "http://www.w3.org/Graphics/SVG/1.1/DTD/svg11.dtd">
<svg xmlns="http://www.w3.org/2000/svg" xmlns:xlink="http://www.w3.org/1999/xlink" version="1.1" id="Capa_1" x="0px" y="0px" width="512px" height="512px" viewBox="0 0 40.528 40.528" style="enable-background:new 0 0 40.528 40.528;" xml:space="preserve">
<g>
	<path d="M22.753,7.022c-8.619,0-17.777,3.127-17.777,8.921v9.394l-1.334-1.334c-0.833-0.834-2.184-0.834-3.017,0   s-0.833,2.184,0,3.018l4.968,4.968C5.599,31.993,5.604,32,5.609,32.006l1.501,1.5l6.841-6.842c0.833-0.834,0.833-2.184,0-3.017   c-0.833-0.834-2.183-0.834-3.017,0L9.241,25.34v-9.396c0-1.853,5.389-4.654,13.512-4.654c8.742,0,13.51,3.075,13.51,4.654v14.545   c0,1.178,0.955,2.135,2.133,2.135c1.179,0,2.133-0.957,2.133-2.135V15.943C40.529,10.149,31.371,7.022,22.753,7.022z" fill="#FFFFFF"/>
</g>
<g>
</g>
<g>
</g>
<g>
</g>
<g>
</g>
<g>
</g>
<g>
</g>
<g>
</g>
<g>
</g>
<g>
</g>
<g>
</g>
<g>
</g>
<g>
</g>
<g>
</g>
<g>
</g>
<g>
</g>
</svg>
